<?xml version="1.0" standalone="no"?>
<!DOCTYPE svg PUBLIC "-//W3C//DTD SVG 20010904//EN"
 "http://www.w3.org/TR/2001/REC-SVG-20010904/DTD/svg10.dtd">
<svg version="1.0" xmlns="http://www.w3.org/2000/svg"
 width="481.000000pt" height="626.000000pt" viewBox="0 0 481.000000 626.000000"
 preserveAspectRatio="xMidYMid meet">

<g transform="translate(0.000000,626.000000) scale(0.100000,-0.100000)"
fill="#000000" stroke="none">
<path d="M2350 6068 c-102 -43 -252 -107 -335 -142 -1383 -583 -1891 -799
-1898 -806 -21 -19 25 -56 197 -160 l184 -110 7 -78 c3 -42 10 -133 15 -202 6
-69 12 -148 15 -177 3 -32 1 -54 -6 -58 -6 -5 -9 0 -8 11 5 26 -9 44 -26 37
-8 -3 -15 0 -15 6 0 6 -5 11 -11 11 -14 0 -3 -96 17 -157 11 -31 12 -48 4 -62
-17 -32 -12 -60 16 -88 l25 -25 -36 -112 c-20 -61 -55 -201 -78 -311 -38 -186
-41 -212 -41 -367 -1 -115 3 -171 11 -179 9 -9 13 8 19 72 l8 84 9 -80 c12
-109 27 -119 27 -19 0 45 5 119 10 165 25 200 32 246 41 260 6 10 7 5 4 -16
-30 -191 -33 -475 -5 -475 5 0 11 48 14 108 17 289 46 555 62 571 6 6 2 -35
-27 -338 -26 -266 -17 -423 17 -283 l12 47 1 -52 c1 -51 20 -77 22 -30 0 12 7
110 14 217 l14 195 -5 -200 c-3 -110 -7 -213 -11 -229 -4 -22 -2 -28 8 -24 8
3 15 14 17 26 2 12 9 19 16 16 20 -8 26 49 27 286 1 185 3 205 11 140 9 -74 3
-379 -8 -432 -7 -30 10 -39 20 -11 4 9 12 64 18 122 19 183 -24 790 -61 860
-8 15 -9 27 -1 40 14 28 12 62 -5 81 -11 13 -13 24 -5 51 6 18 9 54 9 79 -1
30 -3 36 -6 18 -5 -35 -23 -37 -23 -3 0 17 -4 23 -14 19 -8 -3 -16 2 -19 13
-3 13 -5 12 -6 -6 -1 -16 -5 -21 -10 -15 -10 10 -55 421 -49 453 3 17 27 5
171 -80 l167 -100 0 -151 0 -151 53 6 c28 3 124 15 212 26 209 27 432 50 564
58 l105 6 -37 -33 c-42 -37 -129 -203 -146 -280 -14 -60 -14 -120 0 -120 6 0
35 22 65 49 123 112 285 127 439 40 69 -39 85 -31 66 33 -33 112 -151 265
-229 297 -21 9 -30 17 -23 24 12 12 921 23 920 11 0 -5 -20 -25 -44 -44 -128
-102 -265 -340 -196 -340 11 0 57 29 103 64 46 35 108 76 137 91 132 66 295
32 446 -94 62 -52 91 -62 102 -36 14 39 -70 188 -162 282 -30 31 -53 58 -52
59 11 11 543 -57 734 -95 74 -14 93 -15 97 -5 3 7 11 78 17 157 l13 143 240
139 c133 76 278 161 324 188 79 47 93 65 74 93 -6 11 -521 274 -1682 861
l-475 241 -185 -80z m190 13 c0 -4 -24 -17 -52 -29 -189 -74 -515 -210 -1060
-443 -191 -82 -418 -177 -505 -213 -87 -35 -203 -83 -257 -105 -101 -42 -131
-51 -86 -27 31 17 484 213 680 294 524 217 877 365 1052 442 205 89 228 97
228 81z m-2010 -846 c-14 -8 -29 -14 -35 -14 -5 0 1 6 15 14 14 8 30 14 35 14
6 0 -1 -6 -15 -14z m1973 -312 c-27 -4 -33 -9 -33 -28 0 -23 -23 -55 -39 -55
-4 0 -18 9 -30 19 -12 10 -38 22 -58 26 -27 5 -33 9 -22 16 12 7 12 9 -1 10
-8 0 -4 5 10 9 14 4 66 8 115 7 50 0 75 -2 58 -4z m-2072 -1578 c-6 -43 -9
-50 -10 -25 -1 41 12 122 16 100 2 -8 -1 -42 -6 -75z"/>
<path d="M2815 3731 c5 -4 -10 -23 -58 -74 -37 -39 -38 -42 -33 -101 7 -88 13
-106 38 -134 36 -38 77 -55 119 -49 37 5 101 41 97 55 -1 4 4 18 12 32 21 39
26 170 7 206 -9 16 -16 23 -17 16 0 -8 -8 -5 -22 8 -36 34 -72 49 -110 47 -20
-1 -35 -4 -33 -6z"/>
<path d="M1865 3519 c-16 -11 -40 -19 -51 -19 -24 0 -37 -23 -29 -51 8 -23
-11 -59 -30 -59 -11 0 -14 -9 -9 -37 15 -106 114 -134 191 -54 30 31 63 98 62
126 l0 20 -9 -20 c-7 -16 -9 -14 -9 15 -2 72 -61 112 -116 79z"/>
</g>
</svg>
