<?xml version="1.0" standalone="no"?>
<!DOCTYPE svg PUBLIC "-//W3C//DTD SVG 20010904//EN"
 "http://www.w3.org/TR/2001/REC-SVG-20010904/DTD/svg10.dtd">
<svg version="1.0" xmlns="http://www.w3.org/2000/svg"
 width="529.000000pt" height="626.000000pt" viewBox="0 0 529.000000 626.000000"
 preserveAspectRatio="xMidYMid meet">

<g transform="translate(0.000000,626.000000) scale(0.100000,-0.100000)"
fill="#000000" stroke="none">
<path d="M180 4435 l0 -1725 254 0 c140 0 257 -4 260 -8 3 -4 1 -26 -4 -48 -5
-21 -17 -106 -27 -189 -25 -216 -26 -824 -1 -975 26 -152 38 -360 45 -738 5
-290 4 -332 -9 -332 -8 0 -44 -15 -79 -33 -61 -30 -71 -32 -199 -37 l-135 -5
106 -8 c120 -9 140 -6 222 35 68 34 96 33 116 -3 30 -54 -17 -126 -102 -153
-90 -28 -147 -32 -282 -20 -122 11 -215 35 -215 55 0 5 -4 9 -10 9 -19 0 -10
-40 13 -54 64 -42 395 -76 554 -57 61 7 108 8 152 0 120 -19 163 18 141 122
-6 30 -14 71 -17 92 -3 22 -11 37 -19 37 -9 0 -12 8 -8 28 2 15 6 68 8 117 2
50 14 167 25 260 27 212 38 497 22 580 -6 33 -21 84 -33 112 -21 50 -21 53 -4
72 14 16 17 30 12 68 -8 58 22 324 59 519 51 273 57 298 71 326 17 32 74 64
98 55 28 -11 74 -123 246 -599 68 -188 70 -198 55 -221 -18 -29 -14 -54 22
-137 19 -44 23 -64 18 -105 -10 -82 11 -242 45 -340 17 -48 71 -180 120 -294
92 -212 109 -276 110 -402 0 -31 6 -63 14 -74 12 -17 12 -23 0 -47 -32 -62 -8
-189 38 -204 63 -20 259 3 393 48 121 40 259 142 290 214 15 37 4 70 -29 85
-31 14 -49 10 -265 -71 l-163 -60 -24 25 c-19 21 -24 37 -24 81 0 31 -18 146
-40 257 -21 111 -46 245 -55 297 -18 105 -51 237 -91 355 -24 71 -25 83 -15
133 15 75 15 76 -14 111 -16 18 -29 51 -35 83 -5 29 -33 186 -63 348 -31 162
-60 347 -67 410 -6 63 -16 143 -21 176 -8 45 -8 68 0 83 l12 21 1764 0 1765 0
0 1725 0 1725 -2500 0 -2500 0 0 -1725z m4970 15 l0 -1680 -1637 2 -1638 3
1628 2 1627 3 0 1660 0 1660 -2450 0 -2450 0 -3 -1322 -2 -1323 -3 1338 -2
1337 2465 0 2465 0 0 -1680z m-87 70 l-3 -1525 -1680 -1 -1681 -2 -11 27 c-6
14 -10 64 -9 111 3 122 -16 365 -39 500 -31 185 -35 241 -19 251 24 15 111 10
276 -16 194 -31 289 -32 376 -5 84 26 134 74 188 182 50 99 78 138 98 138 32
0 79 39 100 83 30 61 19 80 -53 96 -31 7 -56 18 -56 24 -1 7 -7 -3 -15 -22
-18 -41 -19 -50 -3 -29 12 15 19 15 63 4 42 -11 51 -17 53 -38 3 -26 -19 -41
-78 -52 -14 -2 -6 -4 18 -3 47 3 53 -5 19 -28 -57 -37 -150 -24 -284 40 -62
29 -73 38 -73 59 0 69 53 107 122 89 33 -9 40 -8 48 7 6 11 5 17 -3 17 -7 0
-33 3 -58 7 -37 5 -50 3 -71 -13 -31 -25 -62 -103 -55 -139 7 -38 -50 -162
-74 -162 -11 0 -19 -4 -19 -10 0 -5 -9 -14 -21 -21 -22 -11 -200 6 -389 37
-96 16 -173 18 -198 6 -19 -10 -162 -3 -162 7 0 4 21 17 48 30 67 33 158 100
219 163 75 77 119 156 133 238 11 65 13 69 42 75 76 17 136 114 125 205 -6 49
-5 50 38 86 48 41 90 109 100 166 8 44 -9 103 -36 121 -18 13 -18 14 6 37 32
30 32 49 2 43 -32 -6 -46 15 -58 89 -28 172 -57 231 -131 269 -31 16 -54 20
-90 17 -40 -4 -51 -2 -59 13 -14 27 -85 65 -159 85 -94 26 -328 26 -430 0
-105 -27 -229 -80 -314 -136 -55 -36 -86 -65 -122 -117 -78 -111 -119 -157
-163 -181 l-41 -23 -24 24 c-14 14 -27 22 -30 19 -10 -9 -7 -62 4 -82 8 -14 5
-27 -9 -52 -31 -53 -43 -120 -30 -178 9 -41 19 -57 56 -87 l45 -37 -25 -12
c-94 -50 -62 -264 39 -264 21 0 22 -5 26 -107 2 -90 7 -116 27 -158 49 -100
178 -196 326 -241 l60 -19 -70 -6 -70 -6 -50 -58 c-56 -65 -436 -458 -448
-463 -9 -4 -10 2442 0 2451 3 4 1075 6 2382 5 l2376 -3 -2 -1525z m-3588 1219
c30 -27 35 -37 35 -74 0 -103 -63 -165 -200 -195 -71 -15 -152 -12 -267 11
-132 27 -183 18 -291 -48 -40 -25 -79 -43 -87 -39 -61 23 88 203 231 278 137
72 242 96 416 97 l127 1 36 -31z m446 -192 c14 -26 24 -71 29 -127 7 -90 21
-124 62 -146 l21 -12 -22 -7 c-13 -4 -28 -2 -37 6 -8 6 -17 9 -20 6 -3 -3 12
-25 35 -48 30 -31 42 -54 47 -86 7 -50 -1 -102 -19 -127 -12 -16 -14 -12 -15
32 -1 62 -17 95 -96 194 -79 101 -95 104 -56 12 23 -53 16 -71 -22 -54 -30 14
-66 80 -43 80 25 0 27 20 5 57 -20 34 -21 71 -1 58 6 -3 9 17 8 52 -1 65 29
133 67 151 27 12 32 9 57 -41z m-187 -330 c52 -103 73 -199 60 -273 -8 -45
-13 -51 -57 -75 -67 -36 -83 -57 -20 -25 29 14 54 26 57 26 2 0 2 -39 -1 -87
l-4 -88 22 40 c27 51 49 76 60 69 5 -3 9 0 9 5 0 21 -39 10 -60 -16 l-21 -28
6 55 c4 33 12 60 22 68 23 17 64 15 91 -4 48 -33 16 -164 -51 -204 -40 -25
-64 -25 -69 -2 -3 9 -8 -18 -12 -61 -11 -111 -49 -182 -151 -282 -139 -137
-262 -193 -440 -202 -265 -13 -543 133 -614 322 -19 50 -20 69 -14 235 3 99 9
180 13 180 14 0 27 -25 35 -65 16 -93 81 -165 167 -185 118 -29 234 41 264
159 9 40 16 48 47 58 69 23 141 -14 151 -77 34 -215 307 -269 410 -81 105 194
-109 401 -301 291 -52 -30 -103 -96 -103 -133 0 -21 -3 -21 -42 3 -39 24 -88
26 -128 5 -30 -15 -30 -15 -30 12 -1 67 -63 148 -137 180 -45 18 -121 16 -169
-6 -48 -22 -110 -91 -119 -133 -7 -28 -8 -29 -26 -12 -50 45 9 234 118 381 30
39 41 36 175 -36 76 -41 109 -53 173 -62 181 -25 522 55 600 141 24 27 31 20
89 -93z m-1176 50 c2 -10 -15 -36 -43 -65 -58 -58 -75 -83 -85 -125 -7 -27 -8
-21 -9 30 -1 69 10 107 42 142 39 42 89 51 95 18z m315 -238 c106 -29 177
-168 135 -266 -39 -91 -99 -133 -190 -133 -75 0 -125 25 -172 83 -29 36 -31
45 -31 116 0 65 4 83 24 113 54 79 144 112 234 87z m652 -58 c116 -52 159
-203 87 -305 -88 -127 -289 -110 -353 29 -50 108 2 240 111 284 40 16 112 12
155 -8z m-997 -73 c7 -7 12 -40 12 -76 l0 -64 -19 23 c-17 20 -22 22 -33 10
-7 -8 -8 -11 -1 -7 15 8 53 -58 53 -95 0 -34 -22 -39 -59 -13 -47 34 -66 135
-36 194 19 36 60 51 83 28z m1861 -702 c30 -9 75 -16 100 -16 l44 0 -20 -22
c-11 -13 -39 -52 -63 -88 -80 -121 -136 -163 -257 -195 -81 -21 -148 -19 -313
11 -89 16 -167 24 -202 22 -35 -3 -59 0 -61 6 -2 6 -10 -13 -17 -43 -15 -63
-9 -139 21 -291 15 -78 23 -171 29 -360 5 -140 9 -257 10 -260 2 -3 6 9 10 25
7 26 8 23 9 -22 1 -64 -25 -99 -101 -137 -58 -29 -142 -35 -212 -15 -22 6 -71
16 -110 23 l-71 12 78 13 c42 7 77 15 77 18 0 8 -90 -6 -253 -38 -239 -47
-322 -37 -363 43 -22 42 -14 171 18 313 19 83 26 99 41 97 15 -3 17 4 11 70
-3 40 -7 78 -9 85 -4 12 46 33 91 38 14 1 33 11 42 21 16 17 16 17 0 5 -10 -7
-30 -14 -45 -16 -33 -3 -254 -63 -261 -70 -3 -3 2 -5 11 -5 20 0 21 -15 6 -61
-24 -70 -65 -89 -95 -44 -10 16 -14 35 -10 57 6 30 5 31 -5 8 -5 -14 -8 -35
-6 -48 3 -17 0 -22 -12 -20 -28 5 -23 54 15 142 53 125 140 196 163 134 5 -13
6 -27 3 -32 -3 -6 3 -6 14 -2 61 25 130 46 139 42 6 -2 9 13 7 39 -5 58 17 96
77 134 68 44 108 49 166 20 45 -23 95 -70 95 -90 0 -5 -10 -14 -22 -19 -14 -5
-17 -9 -8 -9 17 -1 40 17 40 31 0 16 -65 80 -101 99 -48 24 -90 24 -138 -1
-86 -43 -138 -112 -125 -164 5 -20 0 -25 -26 -35 l-32 -11 7 88 c3 48 11 113
16 146 12 70 6 84 -10 22 -9 -38 -20 -50 -74 -89 -35 -25 -91 -71 -123 -102
-60 -58 -117 -95 -144 -95 -17 0 -40 -19 -40 -32 0 -5 11 -1 25 8 33 22 41 13
19 -20 -9 -15 -14 -29 -10 -33 3 -3 6 -1 6 5 0 17 60 82 76 82 18 0 18 -20 0
-45 -18 -26 -46 -121 -46 -157 0 -33 -10 -39 -127 -68 -111 -27 -111 -27 -118
23 -8 53 18 128 77 218 39 61 463 504 517 541 14 10 32 16 38 13 7 -2 32 2 56
9 l44 13 7 -91 c4 -50 7 -97 8 -103 1 -8 16 -13 40 -13 29 0 38 4 38 18 0 15
26 72 66 145 8 15 19 27 24 27 33 0 109 -109 113 -161 1 -11 7 -19 13 -19 21
0 -21 106 -59 147 -11 13 -18 25 -16 27 3 3 35 8 72 12 79 8 77 11 48 -103
-11 -40 -16 -73 -13 -73 4 0 20 42 37 93 l30 92 150 -1 c82 -1 174 -6 204 -13
29 -6 90 -11 135 -11 44 0 118 -5 163 -11 l82 -12 -19 -25 c-21 -26 -26 -52
-11 -52 5 0 19 16 31 35 25 40 40 46 34 13 -4 -21 -4 -22 5 -3 5 11 10 31 10
44 l1 24 25 -23 c29 -27 44 -21 22 10 -14 20 -12 26 25 90 l40 69 37 -18 c20
-10 60 -26 90 -35z m-1323 -96 c29 -11 30 -23 5 -58 -10 -15 -26 -48 -36 -74
-10 -27 -21 -48 -25 -48 -10 0 -28 71 -36 145 l-7 58 38 -7 c20 -4 48 -11 61
-16z m-307 -356 c-6 -19 -9 -63 -7 -97 3 -52 0 -62 -14 -65 -12 -2 -18 3 -18
16 0 11 -7 25 -15 32 -19 16 -80 -1 -132 -37 -18 -12 -33 -19 -33 -14 0 17
202 200 222 201 3 0 2 -16 -3 -36z m-2 -356 c9 -58 8 -70 -17 -149 -16 -47
-36 -122 -46 -167 l-17 -82 -186 2 -186 3 -3 126 c-2 93 1 129 10 136 7 6 44
20 81 33 64 21 70 21 101 6 19 -9 50 -16 70 -16 42 0 58 20 81 98 13 44 20 53
48 61 52 15 53 14 64 -51z m-289 -611 l237 -2 -242 -3 -243 -2 2 243 3 242 2
-237 3 -238 238 -3z m1972 -2341 c0 -2 -64 -39 -142 -82 -138 -76 -146 -79
-218 -82 -66 -3 -78 -1 -94 16 -10 12 -15 26 -11 32 10 17 53 30 72 23 15 -6
15 -7 -3 -14 -14 -6 -10 -8 17 -8 43 -1 243 58 320 94 58 27 59 27 59 21z"/>
<path d="M2640 5060 c-11 -7 -6 -8 16 -4 20 4 34 1 42 -8 10 -12 -12 -17 -139
-33 -124 -15 -152 -21 -160 -37 -17 -32 -2 -39 67 -32 l65 7 -6 -29 -5 -29 11
28 c9 22 17 27 44 27 18 0 42 3 52 6 16 5 16 4 -2 -11 -11 -9 -29 -23 -40 -31
-41 -31 13 1 72 43 34 23 66 43 72 43 24 0 10 -52 -21 -82 l-33 -31 32 22 c17
12 35 30 38 41 17 54 61 -6 51 -70 -4 -28 -3 -31 5 -17 11 19 8 68 -5 98 -6
14 0 17 36 17 47 1 68 19 68 60 0 22 -3 24 -32 18 -102 -18 -137 -18 -159 -2
-27 18 -47 20 -69 6z m157 -36 c-3 -3 -12 -4 -19 -1 -8 3 -5 6 6 6 11 1 17 -2
13 -5z"/>
<path d="M2851 4922 c15 -45 5 -89 -32 -134 -32 -41 -30 -53 2 -15 47 52 62
126 34 163 -13 17 -14 16 -4 -14z"/>
<path d="M2720 4860 c-6 -11 -8 -20 -6 -20 3 0 10 9 16 20 6 11 8 20 6 20 -3
0 -10 -9 -16 -20z"/>
<path d="M2885 4810 c0 -51 -4 -63 -30 -91 -16 -17 -24 -30 -16 -27 40 12 77
121 55 161 -6 10 -9 -5 -9 -43z"/>
<path d="M2693 4814 c-3 -8 -2 -19 3 -24 5 -5 9 1 9 16 0 28 -3 30 -12 8z"/>
<path d="M2646 4749 c-4 -28 -14 -63 -23 -78 l-15 -26 26 28 c21 22 26 38 26
78 0 27 -2 49 -4 49 -2 0 -6 -23 -10 -51z"/>
<path d="M2897 4723 c-7 -44 -49 -103 -73 -103 -20 0 -28 25 -14 49 7 14 7 21
0 21 -5 0 -11 12 -11 28 l-2 27 -6 -30 c-12 -61 -89 -135 -139 -135 -23 0 -47
-25 -61 -63 -14 -37 -7 -34 17 7 15 25 32 38 61 46 27 7 53 26 85 61 42 46 45
48 43 23 -1 -15 5 -31 14 -37 37 -24 104 61 97 121 -3 22 -5 20 -11 -15z"/>
<path d="M2461 4703 c-1 -41 4 -57 22 -75 12 -13 16 -16 8 -6 -7 9 -17 43 -21
75 l-7 58 -2 -52z"/>
<path d="M2370 4365 c0 -11 126 -65 150 -64 17 1 7 7 -30 18 -30 10 -70 25
-87 35 -18 9 -33 14 -33 11z"/>
<path d="M1040 4646 c0 -7 -16 -33 -35 -57 -50 -63 -46 -102 15 -143 54 -36
162 -10 191 46 l12 23 -24 -22 c-52 -48 -131 -53 -184 -11 -33 25 -31 53 5
107 27 40 38 71 25 71 -3 0 -5 -6 -5 -14z"/>
<path d="M1385 4480 c-11 -18 -142 -79 -238 -112 -69 -24 -111 -32 -168 -32
-42 -1 -72 -4 -65 -8 6 -4 19 -8 28 -8 10 0 28 -19 42 -43 33 -55 61 -82 110
-102 122 -51 299 88 314 248 2 26 8 47 13 47 5 0 9 5 9 10 0 13 -37 13 -45 0z
m-92 -99 c-62 -56 -222 -99 -269 -73 -22 12 -24 12 86 36 41 10 104 30 140 46
86 38 93 36 43 -9z m-30 -151 c26 -1 -66 -41 -108 -47 -48 -6 -61 8 -26 27 27
14 93 29 109 24 8 -2 19 -4 25 -4z"/>
<path d="M820 4959 c0 -30 109 -103 127 -86 13 14 -10 59 -40 77 -35 22 -87
27 -87 9z"/>
<path d="M730 4900 c-10 -19 -10 -20 9 -8 22 13 28 28 11 28 -5 0 -14 -9 -20
-20z"/>
<path d="M797 4807 c-7 -47 10 -97 33 -97 16 0 40 26 40 43 0 3 -15 23 -34 46
l-34 40 -5 -32z"/>
<path d="M1467 4893 c19 -30 37 -47 66 -64 17 -10 17 -9 3 19 -16 30 -61 72
-78 72 -4 0 -1 -12 9 -27z"/>
<path d="M1342 4898 c-5 -7 -13 -23 -16 -35 -6 -19 -4 -23 14 -23 12 0 30 5
40 10 17 9 18 14 8 35 -12 27 -30 32 -46 13z"/>
<path d="M1401 4812 c-19 -36 -13 -86 12 -111 27 -24 40 -17 52 31 5 21 3 26
-12 25 -13 -2 -19 6 -21 28 -5 40 -18 52 -31 27z"/>
<path d="M1478 3963 c7 -3 16 -2 19 1 4 3 -2 6 -13 5 -11 0 -14 -3 -6 -6z"/>
<path d="M1418 3953 c7 -3 16 -2 19 1 4 3 -2 6 -13 5 -11 0 -14 -3 -6 -6z"/>
<path d="M1118 3913 c12 -2 32 -2 45 0 12 2 2 4 -23 4 -25 0 -35 -2 -22 -4z"/>
<path d="M1504 3655 c0 -71 1 -99 3 -62 2 37 2 96 0 130 -2 34 -3 4 -3 -68z"/>
<path d="M1063 3747 c9 -8 17 -19 17 -25 0 -6 6 -15 14 -19 15 -9 36 -46 36
-64 0 -8 -6 -7 -17 4 -10 8 -31 18 -48 22 -25 5 -23 3 12 -13 38 -19 63 -46
63 -71 0 -6 -16 1 -36 14 -20 14 -46 25 -58 24 -17 -1 -15 -2 7 -9 37 -11 99
-59 92 -70 -7 -11 -30 -3 -70 23 l-30 20 25 -25 c28 -29 59 -41 76 -30 9 5 8
28 -3 87 -15 81 -35 116 -78 136 -18 9 -19 9 -2 -4z"/>
<path d="M1000 3735 c-11 -13 -7 -15 31 -13 37 1 39 2 11 5 -18 2 -30 9 -27
14 10 14 -1 11 -15 -6z"/>
<path d="M637 3552 c-26 -28 -57 -104 -56 -137 1 -25 2 -23 9 12 9 45 33 98
58 126 8 9 13 17 10 17 -3 0 -12 -8 -21 -18z"/>
<path d="M1513 3305 c0 -44 2 -61 4 -37 2 23 2 59 0 80 -2 20 -4 1 -4 -43z"/>
<path d="M1522 3160 c0 -19 2 -27 5 -17 2 9 2 25 0 35 -3 9 -5 1 -5 -18z"/>
<path d="M1526 3101 c-7 -11 -64 -21 -171 -31 -71 -6 -74 -7 -25 -8 75 -2 182
16 200 34 8 7 11 14 8 14 -4 0 -9 -4 -12 -9z"/>
<path d="M948 3083 c12 -2 32 -2 45 0 12 2 2 4 -23 4 -25 0 -35 -2 -22 -4z"/>
<path d="M1065 3070 c51 -8 212 -13 204 -6 -2 2 -60 6 -129 8 -77 3 -106 2
-75 -2z"/>
</g>
</svg>
